<?xml version="1.0" encoding="utf-8"?>
<!-- Generator: Adobe Illustrator 27.2.0, SVG Export Plug-In . SVG Version: 6.00 Build 0)  -->
<svg version="1.1" id="Capa_1" xmlns="http://www.w3.org/2000/svg" xmlns:xlink="http://www.w3.org/1999/xlink" x="0px" y="0px"
	 viewBox="0 0 595.28 841.89" style="enable-background:new 0 0 595.28 841.89;" xml:space="preserve">
<style type="text/css">
	.st0{fill:#010202;stroke:#000000;stroke-miterlimit:10;}
</style>
<g>
	<g>
		<path class="st0" d="M420.59,415.24c0,9.55,0.03,19.1-0.01,28.65c-0.04,9.25-5.93,17.27-14.39,19.69
			c-8.37,2.4-17.63-1.05-22.23-9.15c-1.83-3.22-2.72-7.38-2.78-11.13c-0.29-16.63-0.16-33.27-0.1-49.9
			c0.04-10.92-3.78-19.99-12.36-26.97c-13.53-11.01-33.46-9.3-44.97,3.88c-5.66,6.48-8.33,13.98-8.28,22.57
			c0.09,16.74,0,33.47,0.07,50.21c0.04,9.15-3.85,15.75-12.24,19.58c-12.12,5.53-27.14-3.9-27.22-17.23
			c-0.1-17.56-0.1-35.12,0.03-52.67c0.18-23.39-22.74-39.76-44.65-31.46c-11.08,4.2-20.94,16.34-20.85,30.14
			c0.11,17.56,0.09,35.12,0.02,52.67c-0.05,11.21-9.22,20.22-20.23,20.1c-10.28-0.11-19.56-8.85-19.66-19.14
			c-0.19-18.89-0.91-37.84,0.22-56.67c1.63-27.21,14.99-47.69,39.24-60.67c13.86-7.41,28.66-9.92,44.18-7.39
			c14.67,2.39,27.54,8.62,38.39,18.87c2.58,2.44,3.64,2.38,6.24,0.06c19.16-17.14,41.18-23.73,66.44-17.47
			c21.71,5.39,37.47,18.36,47.58,38.27c5.27,10.38,7.54,21.42,7.56,32.99C420.59,400.46,420.58,407.85,420.59,415.24z"/>
		<path class="st0" d="M109.31,317.93c9.15,0,18.3-0.02,27.45,0.01c10.44,0.03,19.07,7.5,20.52,17.69
			c1.29,9.12-5.25,18.65-14.9,21.41c-1.93,0.56-4.06,0.61-6.1,0.62c-16.86,0.05-33.72,0.04-50.58,0.03
			c-12.69-0.01-22.3,5.49-28.94,16.2c-7.98,12.87-5.49,29.86,5.73,40.26c6.65,6.16,14.47,9.16,23.51,9.15
			c17.27-0.01,34.54,0.23,51.81-0.06c9.76-0.17,19.12,8.52,19.55,19.16c0.4,10.09-7.89,19.92-18.24,20.03
			c-21.67,0.23-43.44,0.8-65-0.95c-20.7-1.68-36.88-13.12-48.79-30.08c-11.6-16.52-14.91-35.11-11.42-54.62
			c3.3-18.47,12.88-33.53,28.16-44.75c13.13-9.64,27.91-14.07,44.11-14.09C93.89,317.92,101.6,317.92,109.31,317.93z"/>
		<path class="st0" d="M531.49,318.54c10.28,0,20.56,0,30.84,0c10.98,0,20.19,8.95,20.35,19.79c0.16,10.66-9.38,20.1-20.39,20.12
			c-19.33,0.02-38.67,0.5-57.97-0.14c-15.2-0.51-27.45,13.53-26.9,26.25c0.32,7.26-5.86,12.9-13.17,12.96
			c-4.21,0.04-8.43,0.02-12.64,0c-7.78-0.04-13.57-5.46-13.51-13.31c0.18-21.1,8.56-38.44,25.08-51.57
			c12.43-9.88,26.83-14.32,42.72-14.11c8.53,0.12,17.06,0.02,25.6,0.02C531.49,318.55,531.49,318.55,531.49,318.54z"/>
		<path class="st0" d="M489.79,463.21c-10.59,0-21.18-0.12-31.77,0.03c-12.92,0.18-22.79-12.03-19.25-25.37
			c1.66-6.22,9.62-14.17,18.61-14.05c19.32,0.26,38.65,0.2,57.98,0.01c3.71-0.04,7.7-0.6,11.06-2.05
			c10.15-4.39,16.08-12.12,16.47-23.49c0.28-7.95,5.74-13.49,13.64-13.61c4.21-0.07,8.43-0.07,12.64,0
			c7.8,0.14,13.71,5.73,13.4,13.47c-1.05,26.03-13.01,45.56-35.96,58.04c-9.37,5.1-19.63,7.12-30.31,7.04
			C507.48,463.15,498.64,463.2,489.79,463.21z"/>
	</g>
</g>
</svg>
